<svg version="1.1" id="Layer_1" xmlns="http://www.w3.org/2000/svg" xmlns:xlink="http://www.w3.org/1999/xlink" x="0px" y="0px"
	 width="100%" viewBox="0 0 300 300" enable-background="new 0 0 300 300" xml:space="preserve">
<path fill="#000000" opacity="0.000000" stroke="none"
	d="
M127.000000,301.000000 
	C85.015953,301.000000 43.031914,301.000000 1.023935,301.000000 
	C1.023935,201.053955 1.023935,101.107903 1.023935,1.080923 
	C100.908005,1.080923 200.816086,1.080923 300.862091,1.080923 
	C300.862091,100.999878 300.862091,200.999908 300.862091,301.000000 
	C259.239105,301.000000 217.588211,301.000000 175.389542,300.592987 
	C175.501343,299.802643 176.116211,299.262512 176.827286,299.059662 
	C186.249313,296.372101 195.684875,293.731964 205.429138,291.044800 
	C206.507767,290.741730 207.274307,290.473816 208.393036,290.163696 
	C209.519836,289.118591 210.294479,288.115662 211.206512,286.789703 
	C212.839951,285.940460 214.335983,285.414276 216.128662,284.893677 
	C216.945465,284.623352 217.465652,284.347473 218.205170,284.302124 
	C219.476318,284.162506 220.528137,283.792328 221.579956,283.422180 
	C221.077698,282.946106 220.575439,282.470032 220.076263,281.783508 
	C220.079330,281.572998 220.133499,281.155487 220.425430,281.038544 
	C221.137512,280.270233 221.557648,279.618866 221.989197,278.983765 
	C222.000610,279.000000 221.969284,278.976135 222.326172,279.014221 
	C225.270432,278.942291 229.233643,279.813568 230.158035,278.517487 
	C232.067032,275.840973 234.521820,275.355164 237.013809,274.132477 
	C239.089737,273.113953 240.978027,271.135132 242.178741,269.121979 
	C242.928131,267.865509 242.495056,265.689240 242.062042,264.067383 
	C241.924835,263.553528 239.599609,262.927307 239.100861,263.342896 
	C237.834045,264.398468 236.954010,265.967194 236.091507,267.431946 
	C235.798203,267.930054 235.997452,268.731964 236.010208,269.394318 
	C236.082535,273.144775 234.205811,274.257538 230.882294,273.577271 
	C231.280594,270.539093 231.642593,267.777802 232.079010,264.676819 
	C233.112961,263.021149 234.113266,261.732788 235.026031,260.385162 
	C253.891113,232.531891 271.772400,204.085831 286.511230,173.787399 
	C291.754272,163.009308 296.193420,151.845673 294.875702,139.530884 
	C293.303925,124.841866 287.759186,111.325264 281.495697,98.096146 
	C275.964111,86.412926 270.400848,74.744705 264.995026,62.756752 
	C266.452972,61.000595 267.767487,59.557541 269.806793,57.318813 
	C262.328308,49.884251 255.196899,42.509075 247.717148,35.505909 
	C244.905045,32.872959 241.284775,31.103176 237.919861,28.612810 
	C227.165375,20.336912 215.623566,14.044220 202.940475,10.078742 
	C200.363419,9.273008 197.144104,9.286994 194.540176,10.034826 
	C186.954453,12.213393 179.378601,14.582291 172.075821,17.556499 
	C158.331863,23.153996 144.782028,29.228117 130.778839,35.039062 
	C124.432358,31.622482 118.051125,30.479494 111.223709,30.975618 
	C102.051407,31.642134 98.761818,35.017788 99.022545,44.123726 
	C99.072998,45.885502 99.284111,47.642677 99.450584,49.780518 
	C98.206184,49.584229 97.290642,49.373871 96.364471,49.303612 
	C82.224045,48.230904 78.154526,48.712971 72.753616,61.672665 
	C71.935432,63.635925 71.583168,65.793350 70.655853,67.934509 
	C65.846832,70.681282 61.318470,73.232552 56.962360,76.050125 
	C42.697456,85.276810 28.658756,94.792488 16.553492,106.881653 
	C10.246912,113.179848 7.202983,120.698074 9.339728,129.243103 
	C11.248820,136.877716 14.136548,144.380203 17.508812,151.507431 
	C21.592937,160.139130 26.640192,168.315125 31.110344,177.034744 
	C23.303471,185.181808 27.341059,191.729187 39.314648,200.925568 
	C41.119511,199.316223 42.948647,197.685242 44.955864,196.362030 
	C45.747952,197.604691 46.315632,198.574097 46.983032,199.469177 
	C54.622192,209.714523 62.276535,219.948563 69.775642,230.507416 
	C69.797356,233.498383 69.970261,236.167542 70.095978,238.892136 
	C70.048805,238.947571 69.955742,239.059555 69.577370,239.032745 
	C66.399010,238.596024 64.328819,237.786011 65.700958,234.191467 
	C66.143974,233.030930 66.324661,231.280716 65.749512,230.330292 
	C64.769928,228.711548 63.097160,227.512299 61.715630,226.136810 
	C60.901958,227.876617 59.943016,229.567047 59.328613,231.374603 
	C58.954456,232.475342 59.111420,233.756622 58.811550,234.716522 
	C57.769741,234.270676 56.946198,234.065109 56.185638,233.488007 
	C56.799789,231.226730 57.881012,229.303085 57.762989,227.456085 
	C57.626797,225.324661 56.958435,221.970078 55.597134,221.415726 
	C51.884621,219.903885 51.687584,223.463272 51.004341,226.001343 
	C50.943531,226.052094 50.822678,226.154541 50.532051,226.141953 
	C49.861313,226.053345 49.481201,225.977310 49.066193,225.484619 
	C48.473038,222.404495 48.244942,219.598312 47.186832,217.150970 
	C46.788300,216.229218 44.466877,216.138809 43.022057,215.669403 
	C42.580063,217.216461 41.512718,218.902023 41.818699,220.283401 
	C42.594597,223.786316 45.121803,225.810379 48.848885,226.596954 
	C49.717617,228.089813 50.496784,229.270523 51.483715,230.766068 
	C50.177940,230.905212 49.204597,230.738129 48.583054,231.129593 
	C47.133007,232.042847 45.537460,233.019974 44.645664,234.390732 
	C44.245872,235.005203 45.185413,237.453568 45.878765,237.627380 
	C47.617760,238.063324 49.728352,238.117508 51.379887,237.498138 
	C53.097504,236.853973 54.451504,235.240250 56.185719,234.289825 
	C57.236694,234.725311 58.066456,234.921463 58.929893,235.409164 
	C59.276066,236.264938 59.588562,236.829163 59.914238,237.417191 
	C59.700790,237.595856 59.499851,237.910324 59.263554,237.939636 
	C56.276424,238.310135 54.192482,239.776550 54.212605,242.932968 
	C54.218796,243.903870 55.366577,245.443542 56.295734,245.727432 
	C59.413895,246.680115 61.180511,244.768921 62.448673,242.139023 
	C62.920017,241.161545 63.688744,240.327469 64.402702,239.313141 
	C65.802521,240.022720 66.948227,240.603470 68.190079,241.232971 
	C67.117973,242.519318 65.620216,243.529633 65.449554,244.728806 
	C65.255013,246.095825 66.031555,248.724716 66.762062,248.866379 
	C68.294525,249.163589 70.601273,248.707718 71.647041,247.638580 
	C74.281807,244.944870 76.179543,241.185059 80.843628,244.416306 
	C80.851486,244.599777 80.844246,244.966995 80.499878,245.033920 
	C79.184044,246.786224 78.212578,248.471588 77.241119,250.156952 
	C79.277443,251.113205 81.313774,252.069458 83.924057,253.295242 
	C85.951950,265.096497 86.261307,265.753662 90.598526,266.826233 
	C89.290283,263.571198 87.978668,260.318176 86.274681,256.092010 
	C89.290321,256.092010 91.064262,256.092010 92.903206,256.469055 
	C93.135857,261.588806 92.264626,266.680695 93.713829,270.992737 
	C95.906525,277.516998 99.749588,283.481201 102.824425,289.716400 
	C104.726074,293.572571 107.881493,295.653656 111.966805,296.498657 
	C116.134178,297.360626 120.331413,298.091187 124.468529,299.076752 
	C125.411560,299.301361 126.161293,300.337402 127.000000,301.000000 
z"/>
<path fill="#4E4393" opacity="1.000000" stroke="none" 
	d="
M205.117065,291.079956 
	C195.684875,293.731964 186.249313,296.372101 176.827286,299.059662 
	C176.116211,299.262512 175.501343,299.802643 174.920883,300.592987 
	C159.312439,301.000000 143.624878,301.000000 127.468658,301.000000 
	C126.161293,300.337402 125.411560,299.301361 124.468529,299.076752 
	C120.331413,298.091187 116.134178,297.360626 111.966805,296.498657 
	C107.881493,295.653656 104.726074,293.572571 102.824425,289.716400 
	C99.749588,283.481201 95.906525,277.516998 93.713829,270.992737 
	C92.264626,266.680695 93.135857,261.588806 93.166824,256.398621 
	C94.945984,253.570068 96.528786,251.190430 98.104912,248.806381 
	C98.376381,248.395721 98.929161,247.863327 98.828720,247.560989 
	C97.464859,243.455582 100.721809,244.203033 102.705315,243.999817 
	C107.270615,243.532104 111.860405,243.303375 116.705078,243.236755 
	C126.269638,253.919662 135.274658,264.631714 145.031281,274.608734 
	C148.380157,278.033264 153.608353,279.619965 158.224091,282.247192 
	C159.327042,282.002319 160.217987,281.610718 161.032074,281.097229 
	C162.051971,280.453949 163.008774,279.710663 164.109665,279.189331 
	C164.499542,279.409149 164.772583,279.450165 165.045624,279.491180 
	C164.705536,279.317932 164.365448,279.144684 164.067245,278.591370 
	C163.418747,273.572174 162.704193,268.936371 162.067429,264.289856 
	C161.984207,263.682648 162.118881,262.894470 162.459763,262.403229 
	C166.755966,256.211578 171.108612,250.059097 175.797058,243.899124 
	C181.579987,246.177490 187.012741,248.453354 192.472687,250.930862 
	C192.637375,251.379440 192.836304,251.557877 193.127441,251.775482 
	C193.158203,251.883133 193.344543,252.007263 193.377228,252.240387 
	C193.648712,252.814072 193.887512,253.154617 194.210754,253.814056 
	C194.851227,254.765778 195.407257,255.398621 196.084045,256.360657 
	C198.188675,259.876740 200.172546,263.063629 202.215546,266.579956 
	C202.531342,268.412994 202.787994,269.916534 203.066696,271.855988 
	C203.475861,274.531342 203.862976,276.770752 203.981232,279.216248 
	C203.879913,280.580658 204.047440,281.739044 204.175934,283.314941 
	C204.463623,286.181610 204.790344,288.630798 205.117065,291.079956 
M186.761932,261.064301 
	C186.761932,261.064301 186.761841,261.376526 186.761841,261.376526 
	C186.761841,261.376526 187.023804,261.017578 187.428497,260.766724 
	C187.681442,260.565277 187.879242,260.319458 188.439941,259.994232 
	C188.637711,259.827026 188.835480,259.659821 189.033249,259.492615 
	C188.904190,259.442749 188.718689,259.312897 188.656021,259.357147 
	C188.405640,259.533813 188.193451,259.764587 187.556778,260.220306 
	C187.296326,260.418396 187.103455,260.668579 186.761932,261.064301 
M184.411911,269.761200 
	C185.021667,268.021057 185.631424,266.280884 186.241165,264.540741 
	C185.821030,264.435181 185.400894,264.329590 184.980759,264.224030 
	C184.683807,265.912964 184.386856,267.601929 184.411911,269.761200 
M192.820648,258.964935 
	C193.206894,258.805115 193.593155,258.645325 193.979401,258.485504 
	C193.736038,258.338776 193.407440,258.013458 193.266266,258.080841 
	C192.925095,258.243683 192.671387,258.589813 192.820648,258.964935 
M183.210846,273.832275 
	C183.410599,273.791748 183.610352,273.751190 183.810104,273.710663 
	C183.738785,273.466583 183.667450,273.222504 183.596115,272.978424 
	C183.441849,273.144653 183.287582,273.310883 183.210846,273.832275 
z"/>
<path fill="#28343A" opacity="1.000000" stroke="none" 
	d="
M163.992828,279.010559 
	C163.008774,279.710663 162.051971,280.453949 161.032074,281.097229 
	C160.217987,281.610718 159.327042,282.002319 158.593018,282.043762 
	C158.138626,277.987793 158.054611,274.165070 156.862488,270.726562 
	C155.284637,266.175476 154.875198,261.871307 157.489105,257.812988 
	C160.362717,253.351486 163.560699,249.085800 166.807373,244.881516 
	C169.886963,240.893570 170.217819,236.647263 169.693481,231.737579 
	C168.212891,217.874207 166.982513,203.969070 166.222534,190.049332 
	C165.760574,181.588089 168.735580,174.154984 175.123795,168.127319 
	C179.713943,163.796234 183.870621,158.999359 188.122726,154.321228 
	C189.097214,153.249130 189.669342,151.811325 189.986755,151.279221 
	C182.525162,155.688004 174.791977,160.241882 167.074753,164.822617 
	C162.134537,167.755005 159.226624,172.144867 159.111633,177.844681 
	C158.971085,184.810974 158.490036,191.963684 159.795258,198.719086 
	C161.604858,208.085007 160.134277,216.082489 154.111816,223.350769 
	C153.477493,224.116333 153.050186,225.060822 152.382492,225.790176 
	C147.914825,230.670364 146.940445,236.217926 148.885391,242.468887 
	C149.207153,243.503021 148.780762,244.769928 148.717255,245.882004 
	C148.734406,245.834747 148.678589,245.901718 148.666672,245.515656 
	C141.844482,236.152237 142.534119,231.066650 149.628464,222.306549 
	C152.266678,219.048874 153.709152,213.816742 153.590714,209.543365 
	C153.348434,200.802933 151.680023,192.102020 150.788757,184.915390 
	C148.099854,182.605148 146.118576,181.361557 144.746704,179.634033 
	C141.304367,175.299301 137.013809,172.375015 131.490524,173.268250 
	C125.821114,174.185104 122.841621,178.938583 122.778275,184.066101 
	C122.700249,190.380539 124.233490,196.721924 125.175400,203.036011 
	C125.365753,204.312057 126.586266,205.620438 126.382072,206.740814 
	C124.128990,219.103226 124.612320,232.240982 116.440254,242.977692 
	C111.860405,243.303375 107.270615,243.532104 102.705315,243.999817 
	C100.721809,244.203033 97.464859,243.455582 98.828720,247.560989 
	C98.929161,247.863327 98.376381,248.395721 98.104912,248.806381 
	C96.528786,251.190430 94.945984,253.570068 93.101822,256.021606 
	C91.064262,256.092010 89.290321,256.092010 86.274681,256.092010 
	C87.978668,260.318176 89.290283,263.571198 90.598526,266.826233 
	C86.261307,265.753662 85.951950,265.096497 83.924057,253.295242 
	C81.313774,252.069458 79.277443,251.113205 77.241119,250.156952 
	C78.212578,248.471588 79.184044,246.786224 80.904007,245.043976 
	C83.197792,244.590164 84.743073,244.193253 86.536682,243.598709 
	C90.610039,240.810181 93.407478,236.108032 99.126266,237.381775 
	C99.169830,237.391479 99.276909,237.116058 99.726257,237.007645 
	C110.013405,235.659363 114.003204,228.908722 115.835617,219.774078 
	C114.616959,219.838882 113.670479,219.889206 112.550888,219.598831 
	C109.253540,215.039032 106.613708,210.326401 102.913239,206.694382 
	C92.274925,196.252747 84.405556,184.421280 82.269180,169.406723 
	C81.263138,162.336258 80.607979,155.210358 79.989708,148.092545 
	C79.680084,144.528030 79.008949,140.708954 79.907051,137.384827 
	C81.795502,130.395203 84.611900,123.656303 87.122139,116.604568 
	C83.161049,113.153397 77.733078,109.594101 79.066490,103.462746 
	C80.697746,95.961876 75.463966,91.359680 73.986679,84.649567 
	C72.778320,86.395096 72.111099,87.358910 70.847153,89.184738 
	C70.847153,86.172188 70.847153,84.272659 70.847153,82.373131 
	C68.585632,83.903961 66.992645,85.780594 66.320457,87.943398 
	C65.580620,90.323853 65.687340,92.967407 65.383636,95.897934 
	C60.992928,87.843277 62.400936,79.091522 68.692970,72.198463 
	C69.764748,71.024315 70.255966,69.320229 71.015396,67.860970 
	C71.583168,65.793350 71.935432,63.635925 72.753616,61.672665 
	C78.154526,48.712971 82.224045,48.230904 96.364471,49.303612 
	C97.290642,49.373871 98.206184,49.584229 99.450584,49.780518 
	C99.284111,47.642677 99.072998,45.885502 99.022545,44.123726 
	C98.761818,35.017788 102.051407,31.642134 111.223709,30.975618 
	C118.051125,30.479494 124.432358,31.622482 130.744781,35.384315 
	C136.371689,41.811501 140.595245,48.190155 138.373276,56.824837 
	C138.267593,57.235500 138.550262,57.786144 138.748047,58.228718 
	C141.036118,63.348675 143.342712,68.460358 145.633881,73.550865 
	C150.082809,73.876465 154.790863,73.804260 159.337936,74.624458 
	C181.455765,78.614082 196.967361,92.055450 208.927811,110.208519 
	C211.713287,114.436218 215.903870,116.694611 220.129120,116.452789 
	C224.721725,116.189941 225.168640,118.376808 225.669556,121.426605 
	C227.561646,132.946869 224.188843,143.472641 219.523209,153.765640 
	C218.796341,155.369156 218.466858,157.152832 217.707397,159.085495 
	C215.014847,162.322983 212.568481,165.328186 210.679626,167.648544 
	C211.606171,169.879150 212.243439,171.413376 212.497925,173.013962 
	C207.466110,171.974319 203.723145,172.772858 202.063538,177.892990 
	C202.097961,177.907547 202.095856,177.830124 201.853943,177.462555 
	C196.867599,179.785172 192.181198,182.584930 187.363770,185.137375 
	C181.564804,188.209915 178.036957,192.871597 176.619492,199.243210 
	C174.580093,208.410492 173.711548,217.590652 176.702789,226.703873 
	C178.397583,231.867279 178.304260,236.758636 175.678848,241.582214 
	C175.337234,242.209839 175.511520,243.118271 175.446854,243.896622 
	C171.108612,250.059097 166.755966,256.211578 162.459763,262.403229 
	C162.118881,262.894470 161.984207,263.682648 162.067429,264.289856 
	C162.704193,268.936371 163.418747,273.572174 164.057922,278.601807 
	C164.006729,278.992279 163.992828,279.010559 163.992828,279.010559 
M201.354660,161.845947 
	C209.240631,150.871490 214.177490,139.095932 211.485489,125.172890 
	C204.827896,126.202858 200.737061,131.091263 201.136047,139.319061 
	C201.828613,153.600540 196.520859,164.258347 184.797684,172.515564 
	C180.548187,175.508698 177.871033,180.734161 174.476456,184.941040 
	C175.087143,185.483612 175.697845,186.026184 176.308548,186.568771 
	C184.529465,178.529419 192.750381,170.490067 201.354660,161.845947 
M94.296280,152.819550 
	C94.577812,157.076035 94.859352,161.332520 95.140884,165.589005 
	C95.315811,165.576691 95.490746,165.564377 95.665672,165.552063 
	C95.665672,158.569733 95.665672,151.587402 95.665672,144.605057 
	C95.522583,144.604462 95.379494,144.603867 95.236404,144.603271 
	C94.996330,147.060638 94.756248,149.518005 94.296280,152.819550 
M87.487556,81.006355 
	C87.671211,79.128807 87.854866,77.251259 88.038521,75.373711 
	C87.690674,75.342430 87.342834,75.311150 86.994995,75.279869 
	C86.607971,79.015327 86.220947,82.750793 85.833923,86.486259 
	C86.156807,86.519333 86.479691,86.552414 86.802574,86.585487 
	C86.960510,84.985275 87.118439,83.385056 87.487556,81.006355 
M86.016647,163.083191 
	C86.016647,160.522705 86.016647,157.962234 86.016647,155.401749 
	C85.802391,155.412247 85.588127,155.422729 85.373871,155.433228 
	C85.373871,159.069183 85.373871,162.705124 85.373871,166.341080 
	C85.588577,166.334015 85.803284,166.326965 86.017990,166.319916 
	C86.017990,165.509567 86.017990,164.699234 86.016647,163.083191 
M107.042969,136.844360 
	C107.159851,138.099579 107.276726,139.354797 107.393600,140.610031 
	C108.006699,140.514923 108.619789,140.419830 109.232880,140.324738 
	C108.823013,138.295578 108.413155,136.266434 108.003288,134.237274 
	C107.726471,134.268341 107.449661,134.299408 107.172844,134.330490 
	C107.123589,134.940201 107.074326,135.549911 107.042969,136.844360 
M111.020004,134.959427 
	C111.075790,135.546646 111.131577,136.133850 111.187363,136.721069 
	C111.427567,136.714645 111.667763,136.708237 111.907959,136.701813 
	C111.907959,134.951218 111.907959,133.200638 111.907959,131.450043 
	C111.616272,131.448044 111.324585,131.446030 111.032898,131.444031 
	C111.032898,132.399246 111.032898,133.354477 111.020004,134.959427 
M110.892014,126.398872 
	C110.507362,125.610352 110.122711,124.821831 109.738060,124.033310 
	C109.425323,124.290787 109.112587,124.548271 108.799850,124.805748 
	C109.512886,125.527397 110.225914,126.249039 110.892014,126.398872 
M104.017296,121.179817 
	C104.096191,122.042717 104.175079,122.905617 104.253967,123.768509 
	C104.561028,123.687286 104.868080,123.606056 105.175140,123.524826 
	C104.819229,122.562607 104.463310,121.600395 104.017296,121.179817 
M96.462013,170.975800 
	C96.611580,170.366638 96.761147,169.757492 96.910713,169.148331 
	C96.680763,169.113312 96.450806,169.078293 96.220848,169.043274 
	C96.195015,169.581848 96.169182,170.120407 96.462013,170.975800 
M86.455582,151.916138 
	C86.604683,151.313599 86.753777,150.711044 86.902878,150.108505 
	C86.680748,150.074539 86.458626,150.040573 86.236504,150.006607 
	C86.206474,150.539108 86.176445,151.071609 86.455582,151.916138 
M88.226318,71.129318 
	C88.358032,71.430443 88.489746,71.731575 88.621460,72.032700 
	C88.596230,71.664337 88.570999,71.295967 88.226318,71.129318 
M97.787262,174.881287 
	C97.649757,174.576889 97.512253,174.272491 97.374748,173.968094 
	C97.402954,174.339355 97.431160,174.710632 97.787262,174.881287 
M87.880623,90.502243 
	C87.716156,90.334778 87.551689,90.167320 87.387222,89.999855 
	C87.318741,90.255920 87.250267,90.511978 87.181793,90.768036 
	C87.389290,90.802963 87.596779,90.837891 87.880623,90.502243 
M88.770744,142.916794 
	C88.641449,142.626038 88.512154,142.335281 88.382866,142.044525 
	C88.408592,142.402298 88.434319,142.760086 88.770744,142.916794 
M87.464996,147.057480 
	C87.533112,146.701981 87.601227,146.346497 87.669350,145.990997 
	C87.509956,146.262726 87.350555,146.534454 87.464996,147.057480 
M86.869324,170.495987 
	C86.709137,170.329010 86.548958,170.162018 86.388771,169.995041 
	C86.322426,170.249359 86.256088,170.503693 86.189751,170.758011 
	C86.392242,170.792938 86.594734,170.827866 86.869324,170.495987 
M104.983421,141.807571 
	C104.940056,141.590256 104.896690,141.372925 104.853325,141.155609 
	C104.584274,141.234909 104.315224,141.314194 104.046173,141.393478 
	C104.228340,141.562363 104.410515,141.731232 104.983421,141.807571 
M105.530228,126.928635 
	C105.462143,127.289009 105.394066,127.649391 105.325981,128.009766 
	C105.487244,127.734299 105.648506,127.458839 105.530228,126.928635 
M90.478439,65.297539 
	C90.415543,65.236923 90.352638,65.176300 90.478439,65.297539 
M89.691811,68.150375 
	C89.615959,68.198189 89.540115,68.246002 89.691811,68.150375 
M87.313263,173.834229 
	C87.388275,173.786652 87.463280,173.739075 87.313263,173.834229 
M106.285301,131.153107 
	C106.402786,131.040695 106.520271,130.928299 106.637756,130.815903 
	C106.519920,130.835693 106.402077,130.855469 106.285301,131.153107 
M98.692947,178.148621 
	C98.616745,178.196533 98.540543,178.244446 98.692947,178.148621 
M100.527344,183.656754 
	C100.591919,183.717224 100.656494,183.777695 100.527344,183.656754 
M99.303406,180.846863 
	C99.380821,180.798019 99.458237,180.749176 99.303406,180.846863 
M110.306541,120.833595 
	C110.380440,120.787430 110.454338,120.741272 110.306541,120.833595 
M112.581367,116.526459 
	C112.581367,116.526459 112.480888,116.587883 112.581367,116.526459 
M105.484253,117.615135 
	C105.484253,117.615135 105.414009,117.495575 105.484253,117.615135 
M111.591446,118.511253 
	C111.591446,118.511253 111.475494,118.584702 111.591446,118.511253 
M96.480354,141.559616 
	C96.480354,141.559616 96.447968,141.494781 96.480354,141.559616 
z"/>
<path fill="#C9C5DE" opacity="1.000000" stroke="none" 
	d="
M217.953613,158.853195 
	C218.466858,157.152832 218.796341,155.369156 219.523209,153.765640 
	C224.188843,143.472641 227.561646,132.946869 225.669556,121.426605 
	C225.168640,118.376808 224.721725,116.189941 220.129120,116.452789 
	C215.903870,116.694611 211.713287,114.436218 208.927811,110.208519 
	C196.967361,92.055450 181.455765,78.614082 159.337936,74.624458 
	C154.790863,73.804260 150.082809,73.876465 145.633881,73.550865 
	C143.342712,68.460358 141.036118,63.348675 138.748047,58.228718 
	C138.550262,57.786144 138.267593,57.235500 138.373276,56.824837 
	C140.595245,48.190155 136.371689,41.811501 131.117432,35.449333 
	C144.782028,29.228117 158.331863,23.153996 172.075821,17.556499 
	C179.378601,14.582291 186.954453,12.213393 194.540176,10.034826 
	C197.144104,9.286994 200.363419,9.273008 202.940475,10.078742 
	C215.623566,14.044220 227.165375,20.336912 237.608276,28.776070 
	C231.665359,35.390854 230.524567,45.122601 235.894165,52.075092 
	C241.399490,59.203297 247.947128,65.526497 253.888718,72.037819 
	C258.018768,68.659309 261.435181,65.864594 264.851593,63.069862 
	C270.400848,74.744705 275.964111,86.412926 281.495697,98.096146 
	C287.759186,111.325264 293.303925,124.841866 294.875702,139.530884 
	C296.193420,151.845673 291.754272,163.009308 286.511230,173.787399 
	C271.772400,204.085831 253.891113,232.531891 235.026031,260.385162 
	C234.113266,261.732788 233.112961,263.021149 231.708832,264.887573 
	C227.002502,264.138367 225.008591,266.432373 225.336197,270.151581 
	C225.665680,273.891663 224.135132,276.437927 221.969284,278.976135 
	C221.969284,278.976135 222.000610,279.000000 221.629059,278.952698 
	C221.177704,277.680176 221.325180,276.381683 220.959930,275.248413 
	C220.514175,273.865387 219.637772,272.621155 218.947632,271.316895 
	C217.816589,272.310089 215.919724,273.170959 215.720276,274.325134 
	C215.350876,276.463104 215.974121,278.772583 216.139221,281.397736 
	C216.006989,282.819244 215.919510,283.853668 215.832031,284.888092 
	C214.335983,285.414276 212.839951,285.940460 210.945831,286.741760 
	C210.371246,287.009460 210.194733,287.002075 209.991974,286.602356 
	C210.049026,283.304688 212.640549,279.681885 207.542236,277.934204 
	C210.407898,273.646210 209.748596,272.704224 203.044647,271.420074 
	C202.787994,269.916534 202.531342,268.412994 202.471619,266.341156 
	C203.453583,265.150208 204.238632,264.527527 205.230896,264.173584 
	C206.590607,265.040039 207.728455,266.084320 208.899261,266.122711 
	C210.375412,266.171112 212.054886,265.667633 213.290405,264.858368 
	C213.850174,264.491699 214.017593,262.210815 213.551056,261.850922 
	C212.376434,260.944824 210.767502,260.308533 209.281052,260.184967 
	C207.881119,260.068573 206.415268,260.745453 204.912979,260.756775 
	C204.883652,259.804413 204.919769,259.168610 205.101730,258.334625 
	C205.359406,257.853760 205.471237,257.571106 205.583069,257.288422 
	C205.367874,257.698517 205.152679,258.108643 204.561615,258.358154 
	C204.035034,257.738464 203.956390,257.237976 203.720734,256.827637 
	C202.869278,255.345032 201.965027,253.892731 201.080719,252.428970 
	C199.754456,253.387344 198.431366,254.350159 197.099899,255.301254 
	C196.733902,255.562683 196.342850,255.789032 195.963287,256.031494 
	C195.407257,255.398621 194.851227,254.765778 194.161926,253.607788 
	C193.800613,252.724182 193.572571,252.365723 193.344543,252.007263 
	C193.344543,252.007263 193.158203,251.883133 193.149017,251.539154 
	C193.139847,251.195175 193.201080,250.724030 193.352722,250.522705 
	C193.990753,249.865662 194.477158,249.409927 195.145767,249.165710 
	C195.943283,249.186996 196.558594,248.996765 197.406982,248.663452 
	C198.334320,247.985886 199.028595,247.451401 200.034668,246.935928 
	C200.868134,246.683151 201.389801,246.411362 202.256195,246.042175 
	C204.744736,248.237030 206.888535,250.529312 209.317780,253.032013 
	C211.020676,254.072021 212.374985,255.395081 213.874039,255.586868 
	C215.261627,255.764389 216.991821,254.989838 218.194717,254.116241 
	C218.749680,253.713211 218.859787,251.474533 218.382370,251.114410 
	C217.199982,250.222534 215.564545,249.526413 214.107880,249.520294 
	C212.736099,249.514526 211.360184,250.491333 209.828445,250.669067 
	C208.430817,246.278976 207.190842,242.255646 205.992859,237.936523 
	C207.713333,232.342377 209.998505,227.145645 210.907532,221.718430 
	C211.910187,215.732224 213.924820,211.147949 219.753754,208.579620 
	C223.103561,207.103638 222.928391,204.272507 221.463806,201.422699 
	C219.734131,198.057144 217.955276,194.716461 216.165710,191.382187 
	C212.986694,185.459061 213.242050,179.306473 215.024078,172.680054 
	C216.093262,167.823181 217.023438,163.338181 217.953613,158.853195 
M216.182938,241.243057 
	C216.498138,239.179474 217.155960,237.087479 216.988205,235.063934 
	C216.900513,234.005798 215.362045,233.067902 214.478790,232.075668 
	C213.607651,233.122894 211.934204,234.246277 212.024933,235.202240 
	C212.243927,237.509979 213.287155,239.739502 214.143661,242.682724 
	C216.314911,244.522842 218.301056,246.719482 220.763840,247.998032 
	C221.560913,248.411819 223.608185,246.417358 225.083572,245.524490 
	C223.992950,244.342178 223.098526,242.564621 221.763275,242.124557 
	C219.996841,241.542343 217.885345,242.007019 216.182938,241.243057 
M185.874741,44.861351 
	C189.358154,41.599377 193.299423,38.692223 196.185776,34.967564 
	C198.670059,31.761723 198.829681,27.129337 195.344925,24.604744 
	C193.312546,23.132343 189.588455,23.995031 186.625488,23.807129 
	C183.960800,24.011290 180.815857,22.771070 178.868851,23.799278 
	C177.092804,24.737207 175.865021,28.107250 175.781738,30.454546 
	C175.702530,32.686962 177.032288,35.264908 178.436493,37.182869 
	C180.383347,39.842030 182.978790,42.026337 185.874741,44.861351 
M245.077576,132.312119 
	C242.946228,133.152756 239.387833,133.563873 238.978790,134.922897 
	C238.110703,137.807083 237.854279,141.750168 239.217789,144.230881 
	C241.387329,148.178040 245.085083,151.285202 249.072235,155.809418 
	C252.837387,150.619080 256.627197,146.417282 259.059692,141.538727 
	C260.034027,139.584641 258.725861,135.555435 257.100159,133.596497 
	C256.138611,132.437836 252.520569,133.591690 250.106110,133.490341 
	C248.659454,133.429626 247.230194,132.953812 245.077576,132.312119 
M225.792801,239.084412 
	C227.210754,238.764771 228.916153,238.819595 229.962723,238.016174 
	C230.935638,237.269287 231.701279,235.571304 231.612854,234.361115 
	C231.553375,233.547089 229.368835,232.012573 228.960052,232.245880 
	C226.761795,233.500580 224.822021,235.208160 222.792999,236.759399 
	C223.538071,237.510529 224.283142,238.261642 225.792801,239.084412 
z"/>
<path fill="#C8C4DD" opacity="1.000000" stroke="none" 
	d="
M70.655853,67.934509 
	C70.255966,69.320229 69.764748,71.024315 68.692970,72.198463 
	C62.400936,79.091522 60.992928,87.843277 65.383636,95.897934 
	C65.687340,92.967407 65.580620,90.323853 66.320457,87.943398 
	C66.992645,85.780594 68.585632,83.903961 70.847153,82.373131 
	C70.847153,84.272659 70.847153,86.172188 70.847153,89.184738 
	C72.111099,87.358910 72.778320,86.395096 73.986679,84.649567 
	C75.463966,91.359680 80.697746,95.961876 79.066490,103.462746 
	C77.733078,109.594101 83.161049,113.153397 87.122139,116.604568 
	C84.611900,123.656303 81.795502,130.395203 79.907051,137.384827 
	C79.008949,140.708954 79.680084,144.528030 79.989708,148.092545 
	C80.607979,155.210358 81.263138,162.336258 82.269180,169.406723 
	C84.405556,184.421280 92.274925,196.252747 102.913239,206.694382 
	C106.613708,210.326401 109.253540,215.039032 112.268517,219.846710 
	C105.434891,221.556442 102.178085,225.608551 101.723244,232.331985 
	C101.669853,233.121231 99.935310,233.796768 98.979424,234.306778 
	C98.772858,233.718201 98.566986,233.347855 98.152481,232.783279 
	C97.621872,232.412231 97.299896,232.235397 96.945724,231.674347 
	C98.420326,228.715134 100.170609,226.239822 101.289795,223.506119 
	C101.638481,222.654419 100.280006,221.103836 99.703041,219.873184 
	C98.535347,220.519730 96.777046,220.891052 96.321182,221.869308 
	C95.328957,223.998535 95.000664,226.437149 94.382004,228.822617 
	C91.225601,229.504349 86.572060,227.264252 85.653198,232.871460 
	C84.162460,232.890121 82.018692,232.953491 82.000053,233.186676 
	C81.769958,236.065887 81.849945,238.969894 81.849945,242.072418 
	C81.627182,242.091248 80.818054,242.159668 79.689651,242.026276 
	C76.223114,240.678574 75.881538,238.130814 75.781113,235.224686 
	C75.656837,231.628342 74.738647,228.531281 69.926834,230.185608 
	C62.276535,219.948563 54.622192,209.714523 46.983032,199.469177 
	C46.315632,198.574097 45.747952,197.604691 45.008202,196.005005 
	C46.505291,192.502899 48.715900,189.839417 49.617962,186.788971 
	C51.098190,181.783386 47.060593,176.352753 43.419136,178.222580 
	C38.504051,180.746414 35.167629,178.162079 31.270676,176.688324 
	C26.640192,168.315125 21.592937,160.139130 17.508812,151.507431 
	C14.136548,144.380203 11.248820,136.877716 9.339728,129.243103 
	C7.202983,120.698074 10.246912,113.179848 16.553492,106.881653 
	C28.658756,94.792488 42.697456,85.276810 56.962360,76.050125 
	C61.318470,73.232552 65.846832,70.681282 70.655853,67.934509 
M77.729607,201.886719 
	C79.226006,200.247147 81.181465,198.814346 82.047867,196.890976 
	C82.573639,195.723785 81.415512,193.798096 81.013870,192.213150 
	C79.667404,193.065079 77.846764,193.626129 77.098900,194.845261 
	C76.235634,196.252487 76.318398,198.240067 75.263611,200.114792 
	C74.040520,199.293106 72.869400,197.906174 71.581627,197.787750 
	C69.832153,197.626862 67.993454,198.436111 66.193024,198.829315 
	C67.316299,200.388336 68.264183,203.050720 69.601486,203.263306 
	C71.962570,203.638641 74.560982,202.521042 77.729607,201.886719 
M82.838821,210.825836 
	C83.889252,209.393005 85.559784,208.062531 85.817879,206.498917 
	C86.082573,204.895370 84.965706,203.063797 84.453499,201.332016 
	C83.167603,202.540558 81.384697,203.532181 80.735825,205.018768 
	C80.089012,206.500626 80.579399,208.478867 79.845718,210.271713 
	C78.315735,209.924805 76.783089,209.296219 75.256508,209.310608 
	C73.744209,209.324875 72.001373,209.659454 70.829628,210.504898 
	C70.249390,210.923569 70.231361,213.399536 70.830254,213.898117 
	C71.945702,214.826706 73.988045,215.750198 75.126732,215.316422 
	C77.649696,214.355301 79.852097,212.552673 82.838821,210.825836 
M89.872353,219.848495 
	C90.928505,218.416336 92.610664,217.087112 92.867760,215.523560 
	C93.133957,213.904648 92.017906,212.058441 91.506454,210.311661 
	C90.234215,211.537598 88.468849,212.552597 87.828789,214.048950 
	C87.191978,215.537720 87.685501,217.509964 86.892921,219.277771 
	C84.943954,219.175049 82.904747,218.682785 81.077637,219.106079 
	C79.852089,219.390015 78.927261,220.971924 77.867874,221.973068 
	C78.899361,223.057907 79.836182,224.945908 80.979660,225.080688 
	C84.781036,225.528748 87.795753,223.959808 89.872353,219.848495 
M65.339653,113.358536 
	C60.875324,108.316154 57.708618,108.347466 51.298061,113.598534 
	C50.691036,113.099312 50.077034,112.558029 49.426472,112.064980 
	C43.206833,107.351234 36.226368,110.085358 35.974373,117.870003 
	C35.850288,121.703232 37.137436,126.192078 39.299957,129.346252 
	C42.533401,134.062454 47.102516,137.862930 51.539886,142.509949 
	C55.868202,137.820572 60.154202,133.668472 63.842316,129.039963 
	C67.370872,124.611656 68.184723,119.431641 65.339653,113.358536 
M71.901993,189.400757 
	C72.563416,190.326233 73.224846,191.251724 74.160095,192.560333 
	C75.032341,191.138702 75.788345,190.460175 75.827339,189.742676 
	C75.962791,187.250626 75.941048,184.735992 75.695618,182.258026 
	C75.669716,181.996521 73.771698,181.920456 72.742218,181.758362 
	C72.389244,184.060562 72.036263,186.362778 71.901993,189.400757 
z"/>
<path fill="#4F4495" opacity="1.000000" stroke="none" 
	d="
M264.995026,62.756756 
	C261.435181,65.864594 258.018768,68.659309 253.888718,72.037819 
	C247.947128,65.526497 241.399490,59.203297 235.894165,52.075092 
	C230.524567,45.122601 231.665359,35.390854 237.721344,29.103151 
	C241.284775,31.103176 244.905045,32.872959 247.717148,35.505909 
	C255.196899,42.509075 262.328308,49.884251 269.806793,57.318813 
	C267.767487,59.557541 266.452972,61.000595 264.995026,62.756756 
z"/>
<path fill="#504596" opacity="1.000000" stroke="none" 
	d="
M31.110342,177.034744 
	C35.167629,178.162079 38.504051,180.746414 43.419136,178.222580 
	C47.060593,176.352753 51.098190,181.783386 49.617962,186.788971 
	C48.715900,189.839417 46.505291,192.502899 44.830112,195.697235 
	C42.948647,197.685242 41.119511,199.316223 39.314648,200.925568 
	C27.341059,191.729187 23.303471,185.181808 31.110342,177.034744 
z"/>
<path fill="#263239" opacity="1.000000" stroke="none" 
	d="
M69.775642,230.507416 
	C74.738647,228.531281 75.656837,231.628342 75.781113,235.224686 
	C75.881538,238.130814 76.223114,240.678574 79.806580,242.272278 
	C80.440453,243.224350 80.638107,243.728592 80.835762,244.232834 
	C76.179543,241.185059 74.281807,244.944870 71.647041,247.638580 
	C70.601273,248.707718 68.294525,249.163589 66.762062,248.866379 
	C66.031555,248.724716 65.255013,246.095825 65.449554,244.728806 
	C65.620216,243.529633 67.117973,242.519318 68.190079,241.232971 
	C66.948227,240.603470 65.802521,240.022720 64.402702,239.313141 
	C63.688744,240.327469 62.920017,241.161545 62.448673,242.139023 
	C61.180511,244.768921 59.413895,246.680115 56.295734,245.727432 
	C55.366577,245.443542 54.218796,243.903870 54.212605,242.932968 
	C54.192482,239.776550 56.276424,238.310135 59.263554,237.939636 
	C59.499851,237.910324 59.700790,237.595856 59.914238,237.417191 
	C59.588562,236.829163 59.276066,236.264938 58.965126,235.367935 
	C58.966686,235.035156 59.029819,234.956802 59.029816,234.956802 
	C59.111420,233.756622 58.954456,232.475342 59.328613,231.374603 
	C59.943016,229.567047 60.901958,227.876617 61.715630,226.136810 
	C63.097160,227.512299 64.769928,228.711548 65.749512,230.330292 
	C66.324661,231.280716 66.143974,233.030930 65.700958,234.191467 
	C64.328819,237.786011 66.399010,238.596024 69.706528,239.208664 
	C70.497925,239.460648 70.781784,239.509888 71.065643,239.559128 
	C70.758148,239.318314 70.450653,239.077515 70.143158,238.836700 
	C69.970261,236.167542 69.797356,233.498383 69.775642,230.507416 
z"/>
<path fill="#29343A" opacity="1.000000" stroke="none" 
	d="
M222.326172,279.014221 
	C224.135132,276.437927 225.665680,273.891663 225.336197,270.151581 
	C225.008591,266.432373 227.002502,264.138367 231.634399,265.227295 
	C231.642593,267.777802 231.280594,270.539093 230.882294,273.577271 
	C234.205811,274.257538 236.082535,273.144775 236.010208,269.394318 
	C235.997452,268.731964 235.798203,267.930054 236.091507,267.431946 
	C236.954010,265.967194 237.834045,264.398468 239.100861,263.342896 
	C239.599609,262.927307 241.924835,263.553528 242.062042,264.067383 
	C242.495056,265.689240 242.928131,267.865509 242.178741,269.121979 
	C240.978027,271.135132 239.089737,273.113953 237.013809,274.132477 
	C234.521820,275.355164 232.067032,275.840973 230.158035,278.517487 
	C229.233643,279.813568 225.270432,278.942291 222.326172,279.014221 
z"/>
<path fill="#263239" opacity="1.000000" stroke="none" 
	d="
M51.065155,225.950577 
	C51.687584,223.463272 51.884621,219.903885 55.597134,221.415726 
	C56.958435,221.970078 57.626797,225.324661 57.762989,227.456085 
	C57.881012,229.303085 56.799789,231.226730 56.145615,233.535355 
	C56.042610,233.954208 55.964508,234.050507 55.964508,234.050507 
	C54.451504,235.240250 53.097504,236.853973 51.379887,237.498138 
	C49.728352,238.117508 47.617760,238.063324 45.878765,237.627380 
	C45.185413,237.453568 44.245872,235.005203 44.645664,234.390732 
	C45.537460,233.019974 47.133007,232.042847 48.583054,231.129593 
	C49.204597,230.738129 50.177940,230.905212 51.483715,230.766068 
	C50.496784,229.270523 49.717617,228.089813 48.932102,226.499084 
	C48.925751,226.089081 49.101086,225.901291 49.101086,225.901276 
	C49.481201,225.977310 49.861313,226.053345 50.562267,226.347778 
	C51.044422,226.778931 51.205734,226.991684 51.367050,227.204437 
	C51.266422,226.786484 51.165791,226.368530 51.065155,225.950577 
z"/>
<path fill="#29343A" opacity="1.000000" stroke="none" 
	d="
M216.183945,281.010651 
	C215.974121,278.772583 215.350876,276.463104 215.720276,274.325134 
	C215.919724,273.170959 217.816589,272.310089 218.947632,271.316895 
	C219.637772,272.621155 220.514175,273.865387 220.959930,275.248413 
	C221.325180,276.381683 221.177704,277.680176 221.617661,278.936462 
	C221.557648,279.618866 221.137512,280.270233 220.288116,280.844727 
	C219.497345,280.769348 219.135818,280.770905 218.774292,280.772461 
	C219.207260,281.179626 219.640228,281.586792 220.073196,281.993988 
	C220.575439,282.470032 221.077698,282.946106 221.579956,283.422180 
	C220.528137,283.792328 219.476318,284.162506 218.172241,283.991211 
	C217.341309,282.636719 216.762634,281.823700 216.183945,281.010651 
z"/>
<path fill="#37424A" opacity="1.000000" stroke="none" 
	d="
M80.843628,244.416306 
	C80.638107,243.728592 80.440453,243.224350 80.125862,242.474106 
	C80.818054,242.159668 81.627182,242.091248 81.849945,242.072418 
	C81.849945,238.969894 81.769958,236.065887 82.000053,233.186676 
	C82.018692,232.953491 84.162460,232.890121 85.868645,233.006134 
	C86.620399,233.534042 86.822212,233.803696 86.968399,234.490509 
	C86.704636,237.870575 86.496498,240.833466 86.288361,243.796356 
	C84.743073,244.193253 83.197792,244.590164 81.248383,244.977051 
	C80.844246,244.966995 80.851486,244.599777 80.843628,244.416306 
z"/>
<path fill="#263239" opacity="1.000000" stroke="none" 
	d="
M48.842529,226.186951 
	C45.121803,225.810379 42.594597,223.786316 41.818699,220.283401 
	C41.512718,218.902023 42.580063,217.216461 43.022057,215.669403 
	C44.466877,216.138809 46.788300,216.229218 47.186832,217.150970 
	C48.244942,219.598312 48.473038,222.404495 49.066193,225.484619 
	C49.101086,225.901291 48.925751,226.089081 48.842529,226.186951 
z"/>
<path fill="#2B363F" opacity="1.000000" stroke="none" 
	d="
M207.680023,278.219299 
	C212.640549,279.681885 210.049026,283.304688 209.734680,286.630707 
	C209.016037,288.102875 208.528442,289.154388 208.040833,290.205933 
	C207.274307,290.473816 206.507767,290.741730 205.429138,291.044800 
	C204.790344,288.630798 204.463623,286.181610 204.362930,283.089111 
	C205.392242,281.297607 206.195526,280.149414 207.173447,278.809509 
	C207.458725,278.484955 207.569382,278.352142 207.680023,278.219299 
z"/>
<path fill="#323B48" opacity="1.000000" stroke="none" 
	d="
M208.393021,290.163696 
	C208.528442,289.154388 209.016037,288.102875 209.760925,287.023010 
	C210.194733,287.002075 210.371246,287.009460 210.808441,287.064819 
	C210.294479,288.115662 209.519836,289.118591 208.393021,290.163696 
z"/>
<path fill="#333D45" opacity="1.000000" stroke="none" 
	d="
M216.139221,281.397736 
	C216.762634,281.823700 217.341309,282.636719 217.952911,283.760681 
	C217.465652,284.347473 216.945465,284.623352 216.128662,284.893677 
	C215.919510,283.853668 216.006989,282.819244 216.139221,281.397736 
z"/>
<path fill="#333D45" opacity="1.000000" stroke="none" 
	d="
M220.076263,281.783508 
	C219.640228,281.586792 219.207260,281.179626 218.774292,280.772461 
	C219.135818,280.770905 219.497345,280.769348 219.996185,280.961670 
	C220.133499,281.155487 220.079330,281.572998 220.076263,281.783508 
z"/>
<path fill="#263239" opacity="1.000000" stroke="none" 
	d="
M56.082634,233.906860 
	C56.946198,234.065109 57.769741,234.270676 58.811554,234.716522 
	C59.029819,234.956802 58.966686,235.035156 58.931450,235.076385 
	C58.066456,234.921463 57.236694,234.725311 56.185722,234.289825 
	C55.964508,234.050507 56.042610,233.954208 56.082634,233.906860 
z"/>
<path fill="#FBFBFC" opacity="1.000000" stroke="none" 
	d="
M148.700119,245.929260 
	C148.780762,244.769928 149.207153,243.503021 148.885391,242.468887 
	C146.940445,236.217926 147.914825,230.670364 152.382492,225.790176 
	C153.050186,225.060822 153.477493,224.116333 154.111816,223.350769 
	C160.134277,216.082489 161.604858,208.085007 159.795258,198.719086 
	C158.490036,191.963684 158.971085,184.810974 159.111633,177.844681 
	C159.226624,172.144867 162.134537,167.755005 167.074753,164.822617 
	C174.791977,160.241882 182.525162,155.688004 189.986755,151.279221 
	C189.669342,151.811325 189.097214,153.249130 188.122726,154.321228 
	C183.870621,158.999359 179.713943,163.796234 175.123795,168.127319 
	C168.735580,174.154984 165.760574,181.588089 166.222534,190.049332 
	C166.982513,203.969070 168.212891,217.874207 169.693481,231.737579 
	C170.217819,236.647263 169.886963,240.893570 166.807373,244.881516 
	C163.560699,249.085800 160.362717,253.351486 157.489105,257.812988 
	C154.875198,261.871307 155.284637,266.175476 156.862488,270.726562 
	C158.054611,274.165070 158.138626,277.987793 158.346893,281.842896 
	C153.608353,279.619965 148.380157,278.033264 145.031281,274.608734 
	C135.274658,264.631714 126.269638,253.919662 116.705078,243.236755 
	C124.612320,232.240982 124.128990,219.103226 126.382072,206.740814 
	C126.586266,205.620438 125.365753,204.312057 125.175400,203.036011 
	C124.233490,196.721924 122.700249,190.380539 122.778275,184.066101 
	C122.841621,178.938583 125.821114,174.185104 131.490524,173.268250 
	C137.013809,172.375015 141.304367,175.299301 144.746704,179.634033 
	C146.118576,181.361557 148.099854,182.605148 150.788757,184.915390 
	C151.680023,192.102020 153.348434,200.802933 153.590714,209.543365 
	C153.709152,213.816742 152.266678,219.048874 149.628464,222.306549 
	C142.534119,231.066650 141.844482,236.152237 148.949219,245.392670 
	C149.303207,245.426147 149.362717,245.196579 149.422211,244.966995 
	C149.181519,245.287750 148.940811,245.608505 148.700119,245.929260 
z"/>
<path fill="#FDFDFD" opacity="1.000000" stroke="none" 
	d="
M194.963577,248.954193 
	C194.477158,249.409927 193.990753,249.865662 193.163025,250.463058 
	C192.821701,250.604721 192.445480,250.729218 192.445480,250.729218 
	C187.012741,248.453354 181.579987,246.177490 175.797058,243.899124 
	C175.511520,243.118271 175.337234,242.209839 175.678848,241.582214 
	C178.304260,236.758636 178.397583,231.867279 176.702789,226.703873 
	C173.711548,217.590652 174.580093,208.410492 176.619492,199.243210 
	C178.036957,192.871597 181.564804,188.209915 187.363770,185.137375 
	C192.181198,182.584930 196.867599,179.785172 201.915894,177.895538 
	C200.431076,182.945068 199.981613,187.067139 203.006775,191.427307 
	C206.397659,185.795944 205.870728,180.704422 202.029114,177.878433 
	C203.723145,172.772858 207.466110,171.974319 212.832382,173.032364 
	C213.994797,173.006897 214.439957,173.029419 214.885101,173.051926 
	C213.242050,179.306473 212.986694,185.459061 216.165710,191.382187 
	C217.955276,194.716461 219.734131,198.057144 221.463806,201.422699 
	C222.928391,204.272507 223.103561,207.103638 219.753754,208.579620 
	C213.924820,211.147949 211.910187,215.732224 210.907532,221.718430 
	C209.998505,227.145645 207.713333,232.342377 205.724274,238.121216 
	C204.254623,240.729568 203.095581,242.857437 201.640594,245.056854 
	C200.804047,245.724564 200.263458,246.320740 199.722870,246.916931 
	C199.028595,247.451401 198.334320,247.985886 197.223389,248.492340 
	C196.192337,248.627594 195.577957,248.790894 194.963577,248.954193 
z"/>
<path fill="#323D44" opacity="1.000000" stroke="none" 
	d="
M196.084045,256.360657 
	C196.342850,255.789032 196.733902,255.562683 197.099899,255.301254 
	C198.431366,254.350159 199.754456,253.387344 201.080719,252.428970 
	C201.965027,253.892731 202.869278,255.345032 203.720734,256.827637 
	C203.956390,257.237976 204.035034,257.738464 204.589020,258.329346 
	C204.992325,258.461090 204.955872,258.532806 204.955872,258.532806 
	C204.919769,259.168610 204.883652,259.804413 204.920502,261.110687 
	C205.003540,262.489044 205.013596,263.196960 205.023651,263.904846 
	C204.238632,264.527527 203.453583,265.150208 202.412476,266.011658 
	C200.172546,263.063629 198.188675,259.876740 196.084045,256.360657 
z"/>
<path fill="#2B363F" opacity="1.000000" stroke="none" 
	d="
M203.066696,271.855988 
	C209.748596,272.704224 210.407898,273.646210 207.542236,277.934204 
	C207.569382,278.352142 207.458725,278.484955 206.827667,278.806396 
	C205.621521,279.000092 204.935806,279.005127 204.250092,279.010193 
	C203.862976,276.770752 203.475861,274.531342 203.066696,271.855988 
z"/>
<path fill="#3B3B69" opacity="1.000000" stroke="none" 
	d="
M184.250900,269.526062 
	C184.386856,267.601929 184.683807,265.912964 184.980759,264.224030 
	C185.400894,264.329590 185.821030,264.435181 186.241165,264.540741 
	C185.631424,266.280884 185.021667,268.021057 184.250900,269.526062 
z"/>
<path fill="#323B48" opacity="1.000000" stroke="none" 
	d="
M203.981232,279.216248 
	C204.935806,279.005127 205.621521,279.000092 206.653015,278.998108 
	C206.195526,280.149414 205.392242,281.297607 204.401962,282.671570 
	C204.047440,281.739044 203.879913,280.580658 203.981232,279.216248 
z"/>
<path fill="#3B3B69" opacity="1.000000" stroke="none" 
	d="
M192.601532,258.913513 
	C192.671387,258.589813 192.925095,258.243683 193.266266,258.080841 
	C193.407440,258.013458 193.736038,258.338776 193.979401,258.485504 
	C193.593155,258.645325 193.206894,258.805115 192.601532,258.913513 
z"/>
<path fill="#3B3B69" opacity="1.000000" stroke="none" 
	d="
M183.172089,273.654694 
	C183.287582,273.310883 183.441849,273.144653 183.596115,272.978424 
	C183.667450,273.222504 183.738785,273.466583 183.810104,273.710663 
	C183.610352,273.751190 183.410599,273.791748 183.172089,273.654694 
z"/>
<path fill="#28343A" opacity="1.000000" stroke="none" 
	d="
M164.016052,278.981873 
	C164.365448,279.144684 164.705536,279.317932 165.045624,279.491180 
	C164.772583,279.450165 164.499542,279.409149 164.109665,279.189331 
	C163.992828,279.010559 164.006729,278.992279 164.016052,278.981873 
z"/>
<path fill="#3B3B69" opacity="1.000000" stroke="none" 
	d="
M187.967133,259.975342 
	C188.193451,259.764587 188.405640,259.533813 188.656021,259.357147 
	C188.718689,259.312897 188.904190,259.442749 189.033249,259.492615 
	C188.835480,259.659821 188.637711,259.827026 188.218445,259.996765 
	C187.996933,259.999268 187.967117,259.975342 187.967133,259.975342 
z"/>
<path fill="#BEBCD3" opacity="1.000000" stroke="none" 
	d="
M193.377228,252.240387 
	C193.572571,252.365723 193.800613,252.724182 194.077484,253.288910 
	C193.887512,253.154617 193.648712,252.814072 193.377228,252.240387 
z"/>
<path fill="#BEBCD3" opacity="1.000000" stroke="none" 
	d="
M192.472687,250.930862 
	C192.445480,250.729218 192.821701,250.604721 193.011383,250.664368 
	C193.201080,250.724030 193.139847,251.195175 193.118256,251.431519 
	C192.836304,251.557877 192.637375,251.379440 192.472687,250.930862 
z"/>
<path fill="#3B3B69" opacity="1.000000" stroke="none" 
	d="
M187.023804,261.017578 
	C187.023804,261.017578 186.761841,261.376526 186.761841,261.376526 
	C186.761841,261.376526 186.761932,261.064301 186.880219,261.030640 
	C186.998520,260.996979 187.023804,261.017578 187.023804,261.017578 
z"/>
<path fill="#3B3B69" opacity="1.000000" stroke="none" 
	d="
M186.988342,260.983948 
	C187.103455,260.668579 187.296326,260.418396 187.761948,260.097839 
	C187.967117,259.975342 187.996933,259.999268 188.009399,260.014252 
	C187.879242,260.319458 187.681442,260.565277 187.226151,260.892151 
	C187.023804,261.017578 186.998520,260.996979 186.988342,260.983948 
z"/>
<path fill="#F7F7F7" opacity="1.000000" stroke="none" 
	d="
M201.162979,162.148346 
	C192.750381,170.490067 184.529465,178.529419 176.308548,186.568771 
	C175.697845,186.026184 175.087143,185.483612 174.476456,184.941040 
	C177.871033,180.734161 180.548187,175.508698 184.797684,172.515564 
	C196.520859,164.258347 201.828613,153.600540 201.136047,139.319061 
	C200.737061,131.091263 204.827896,126.202858 211.485489,125.172890 
	C214.177490,139.095932 209.240631,150.871490 201.162979,162.148346 
z"/>
<path fill="#524B8B" opacity="1.000000" stroke="none" 
	d="
M98.980110,234.525009 
	C99.935310,233.796768 101.669853,233.121231 101.723244,232.331985 
	C102.178085,225.608551 105.434891,221.556442 112.441620,220.187408 
	C113.670479,219.889206 114.616959,219.838882 115.835617,219.774078 
	C114.003204,228.908722 110.013405,235.659363 99.531136,236.622604 
	C98.969429,235.644119 98.974770,235.084564 98.980110,234.525009 
z"/>
<path fill="#BEBBD2" opacity="1.000000" stroke="none" 
	d="
M98.979424,234.306778 
	C98.974770,235.084564 98.969429,235.644119 99.159210,236.588715 
	C99.276909,237.116058 99.169830,237.391479 99.126266,237.381775 
	C93.407478,236.108032 90.610039,240.810181 86.536697,243.598724 
	C86.496498,240.833466 86.704636,237.870575 87.311172,234.656387 
	C90.817841,233.876282 93.926117,233.347488 97.101997,233.105164 
	C97.566765,233.253601 97.963936,233.115555 98.361107,232.977509 
	C98.566986,233.347855 98.772858,233.718201 98.979424,234.306778 
z"/>
<path fill="#EAEBEC" opacity="1.000000" stroke="none" 
	d="
M215.024078,172.680054 
	C214.439957,173.029419 213.994797,173.006897 213.215179,172.965988 
	C212.243439,171.413376 211.606171,169.879150 210.679626,167.648544 
	C212.568481,165.328186 215.014847,162.322983 217.707397,159.085495 
	C217.023438,163.338181 216.093262,167.823181 215.024078,172.680054 
z"/>
<path fill="#4B5255" opacity="1.000000" stroke="none" 
	d="
M94.406227,152.397461 
	C94.756248,149.518005 94.996330,147.060638 95.236404,144.603271 
	C95.379494,144.603867 95.522583,144.604462 95.665672,144.605057 
	C95.665672,151.587402 95.665672,158.569733 95.665672,165.552063 
	C95.490746,165.564377 95.315811,165.576691 95.140884,165.589005 
	C94.859352,161.332520 94.577812,157.076035 94.406227,152.397461 
z"/>
<path fill="#4C5356" opacity="1.000000" stroke="none" 
	d="
M87.381958,81.395599 
	C87.118439,83.385056 86.960510,84.985275 86.802574,86.585487 
	C86.479691,86.552414 86.156807,86.519333 85.833923,86.486259 
	C86.220947,82.750793 86.607971,79.015327 86.994995,75.279869 
	C87.342834,75.311150 87.690674,75.342430 88.038521,75.373711 
	C87.854866,77.251259 87.671211,79.128807 87.381958,81.395599 
z"/>
<path fill="#4F5658" opacity="1.000000" stroke="none" 
	d="
M86.017319,163.486053 
	C86.017990,164.699234 86.017990,165.509567 86.017990,166.319916 
	C85.803284,166.326965 85.588577,166.334015 85.373871,166.341080 
	C85.373871,162.705124 85.373871,159.069183 85.373871,155.433228 
	C85.588127,155.422729 85.802391,155.412247 86.016647,155.401749 
	C86.016647,157.962234 86.016647,160.522705 86.017319,163.486053 
z"/>
<path fill="#4E5458" opacity="1.000000" stroke="none" 
	d="
M107.034019,136.501984 
	C107.074326,135.549911 107.123589,134.940201 107.172844,134.330490 
	C107.449661,134.299408 107.726471,134.268341 108.003288,134.237274 
	C108.413155,136.266434 108.823013,138.295578 109.232880,140.324738 
	C108.619789,140.419830 108.006699,140.514923 107.393600,140.610031 
	C107.276726,139.354797 107.159851,138.099579 107.034019,136.501984 
z"/>
<path fill="#484F53" opacity="1.000000" stroke="none" 
	d="
M111.026451,134.634567 
	C111.032898,133.354477 111.032898,132.399246 111.032898,131.444031 
	C111.324585,131.446030 111.616272,131.448044 111.907959,131.450043 
	C111.907959,133.200638 111.907959,134.951218 111.907959,136.701813 
	C111.667763,136.708237 111.427567,136.714645 111.187363,136.721069 
	C111.131577,136.133850 111.075790,135.546646 111.026451,134.634567 
z"/>
<path fill="#484F53" opacity="1.000000" stroke="none" 
	d="
M110.915482,126.684784 
	C110.225914,126.249039 109.512886,125.527397 108.799850,124.805748 
	C109.112587,124.548271 109.425323,124.290787 109.738060,124.033310 
	C110.122711,124.821831 110.507362,125.610352 110.915482,126.684784 
z"/>
<path fill="#4E5458" opacity="1.000000" stroke="none" 
	d="
M104.062347,120.908997 
	C104.463310,121.600395 104.819229,122.562607 105.175140,123.524826 
	C104.868080,123.606056 104.561028,123.687286 104.253967,123.768509 
	C104.175079,122.905617 104.096191,122.042717 104.062347,120.908997 
z"/>
<path fill="#4B5255" opacity="1.000000" stroke="none" 
	d="
M96.302673,170.817383 
	C96.169182,170.120407 96.195015,169.581848 96.220848,169.043274 
	C96.450806,169.078293 96.680763,169.113312 96.910713,169.148331 
	C96.761147,169.757492 96.611580,170.366638 96.302673,170.817383 
z"/>
<path fill="#4F5658" opacity="1.000000" stroke="none" 
	d="
M86.300995,151.760132 
	C86.176445,151.071609 86.206474,150.539108 86.236504,150.006607 
	C86.458626,150.040573 86.680748,150.074539 86.902878,150.108505 
	C86.753777,150.711044 86.604683,151.313599 86.300995,151.760132 
z"/>
<path fill="#4C5356" opacity="1.000000" stroke="none" 
	d="
M88.386047,71.028458 
	C88.570999,71.295967 88.596230,71.664337 88.621460,72.032700 
	C88.489746,71.731575 88.358032,71.430443 88.386047,71.028458 
z"/>
<path fill="#4B5255" opacity="1.000000" stroke="none" 
	d="
M97.623322,174.981598 
	C97.431160,174.710632 97.402954,174.339355 97.374756,173.968094 
	C97.512253,174.272491 97.649757,174.576889 97.623322,174.981598 
z"/>
<path fill="#4C5356" opacity="1.000000" stroke="none" 
	d="
M87.842453,90.687531 
	C87.596779,90.837891 87.389290,90.802963 87.181793,90.768036 
	C87.250267,90.511978 87.318741,90.255920 87.387222,89.999855 
	C87.551689,90.167320 87.716156,90.334778 87.842453,90.687531 
z"/>
<path fill="#4F5658" opacity="1.000000" stroke="none" 
	d="
M88.615395,143.017334 
	C88.434319,142.760086 88.408592,142.402298 88.382866,142.044525 
	C88.512154,142.335281 88.641449,142.626038 88.615395,143.017334 
z"/>
<path fill="#4F5658" opacity="1.000000" stroke="none" 
	d="
M87.328079,146.931824 
	C87.350555,146.534454 87.509956,146.262726 87.669350,145.990997 
	C87.601227,146.346497 87.533112,146.701981 87.328079,146.931824 
z"/>
<path fill="#4F5658" opacity="1.000000" stroke="none" 
	d="
M86.833275,170.679382 
	C86.594734,170.827866 86.392242,170.792938 86.189751,170.758011 
	C86.256088,170.503693 86.322426,170.249359 86.388771,169.995041 
	C86.548958,170.162018 86.709137,170.329010 86.833275,170.679382 
z"/>
<path fill="#4E5458" opacity="1.000000" stroke="none" 
	d="
M104.788055,141.853851 
	C104.410515,141.731232 104.228340,141.562363 104.046173,141.393478 
	C104.315224,141.314194 104.584274,141.234909 104.853325,141.155609 
	C104.896690,141.372925 104.940056,141.590256 104.788055,141.853851 
z"/>
<path fill="#4E5458" opacity="1.000000" stroke="none" 
	d="
M105.669998,127.056000 
	C105.648506,127.458839 105.487244,127.734299 105.325981,128.009766 
	C105.394066,127.649391 105.462143,127.289009 105.669998,127.056000 
z"/>
<path fill="#4C5356" opacity="1.000000" stroke="none" 
	d="
M90.384094,65.206612 
	C90.352638,65.176300 90.415543,65.236923 90.384094,65.206612 
z"/>
<path fill="#4C5356" opacity="1.000000" stroke="none" 
	d="
M89.578033,68.222099 
	C89.540115,68.246002 89.615959,68.198189 89.578033,68.222099 
z"/>
<path fill="#4F5658" opacity="1.000000" stroke="none" 
	d="
M87.425781,173.762863 
	C87.463280,173.739075 87.388275,173.786652 87.425781,173.762863 
z"/>
<path fill="#4E5458" opacity="1.000000" stroke="none" 
	d="
M106.284775,131.014175 
	C106.402077,130.855469 106.519920,130.835693 106.637756,130.815903 
	C106.520271,130.928299 106.402786,131.040695 106.284775,131.014175 
z"/>
<path fill="#4B5255" opacity="1.000000" stroke="none" 
	d="
M98.578644,178.220490 
	C98.540543,178.244446 98.616745,178.196533 98.578644,178.220490 
z"/>
<path fill="#4B5255" opacity="1.000000" stroke="none" 
	d="
M100.624207,183.747467 
	C100.656494,183.777695 100.591919,183.717224 100.624207,183.747467 
z"/>
<path fill="#4B5255" opacity="1.000000" stroke="none" 
	d="
M99.419533,180.773590 
	C99.458237,180.749176 99.380821,180.798019 99.419533,180.773590 
z"/>
<path fill="#484F53" opacity="1.000000" stroke="none" 
	d="
M110.417389,120.764351 
	C110.454338,120.741272 110.380440,120.787430 110.417389,120.764351 
z"/>
<path fill="#484F53" opacity="1.000000" stroke="none" 
	d="
M112.531128,116.557175 
	C112.480888,116.587883 112.581367,116.526459 112.531128,116.557175 
z"/>
<path fill="#4E5458" opacity="1.000000" stroke="none" 
	d="
M105.449127,117.555359 
	C105.414009,117.495575 105.484253,117.615135 105.449127,117.555359 
z"/>
<path fill="#484F53" opacity="1.000000" stroke="none" 
	d="
M111.533470,118.547974 
	C111.475494,118.584702 111.591446,118.511253 111.533470,118.547974 
z"/>
<path fill="#4B5255" opacity="1.000000" stroke="none" 
	d="
M96.464157,141.527191 
	C96.447968,141.494781 96.480354,141.559616 96.464157,141.527191 
z"/>
<path fill="#514797" opacity="1.000000" stroke="none" 
	d="
M185.585648,44.637650 
	C182.978790,42.026337 180.383347,39.842030 178.436493,37.182869 
	C177.032288,35.264908 175.702530,32.686962 175.781738,30.454546 
	C175.865021,28.107250 177.092804,24.737207 178.868851,23.799278 
	C180.815857,22.771070 183.960800,24.011290 186.625488,23.807129 
	C189.588455,23.995031 193.312546,23.132343 195.344925,24.604744 
	C198.829681,27.129337 198.670059,31.761723 196.185776,34.967564 
	C193.299423,38.692223 189.358154,41.599377 185.585648,44.637650 
z"/>
<path fill="#514697" opacity="1.000000" stroke="none" 
	d="
M245.435349,132.488342 
	C247.230194,132.953812 248.659454,133.429626 250.106110,133.490341 
	C252.520569,133.591690 256.138611,132.437836 257.100159,133.596497 
	C258.725861,135.555435 260.034027,139.584641 259.059692,141.538727 
	C256.627197,146.417282 252.837387,150.619080 249.072235,155.809418 
	C245.085083,151.285202 241.387329,148.178040 239.217789,144.230881 
	C237.854279,141.750168 238.110703,137.807083 238.978790,134.922897 
	C239.387833,133.563873 242.946228,133.152756 245.435349,132.488342 
z"/>
<path fill="#39444B" opacity="1.000000" stroke="none" 
	d="
M201.936554,244.985306 
	C203.095581,242.857437 204.254623,240.729568 205.682251,238.417023 
	C207.190842,242.255646 208.430817,246.278976 209.730255,250.902695 
	C209.537262,251.942596 209.284790,252.382080 209.032333,252.821579 
	C206.888535,250.529312 204.744736,248.237030 202.324127,245.753754 
	C202.010391,245.370270 201.973465,245.177780 201.936554,244.985306 
z"/>
<path fill="#333E46" opacity="1.000000" stroke="none" 
	d="
M215.922165,242.021759 
	C217.885345,242.007019 219.996841,241.542343 221.763275,242.124557 
	C223.098526,242.564621 223.992950,244.342178 225.083572,245.524490 
	C223.608185,246.417358 221.560913,248.411819 220.763840,247.998032 
	C218.301056,246.719482 216.314911,244.522842 214.391571,242.342590 
	C215.067047,242.008896 215.494614,242.015335 215.922165,242.021759 
z"/>
<path fill="#333E45" opacity="1.000000" stroke="none" 
	d="
M225.410522,239.048584 
	C224.283142,238.261642 223.538071,237.510529 222.792999,236.759399 
	C224.822021,235.208160 226.761795,233.500580 228.960052,232.245880 
	C229.368835,232.012573 231.553375,233.547089 231.612854,234.361115 
	C231.701279,235.571304 230.935638,237.269287 229.962723,238.016174 
	C228.916153,238.819595 227.210754,238.764771 225.410522,239.048584 
z"/>
<path fill="#303B42" opacity="1.000000" stroke="none" 
	d="
M205.230896,264.173584 
	C205.013596,263.196960 205.003540,262.489044 204.985962,261.427246 
	C206.415268,260.745453 207.881119,260.068573 209.281052,260.184967 
	C210.767502,260.308533 212.376434,260.944824 213.551056,261.850922 
	C214.017593,262.210815 213.850174,264.491699 213.290405,264.858368 
	C212.054886,265.667633 210.375412,266.171112 208.899261,266.122711 
	C207.728455,266.084320 206.590607,265.040039 205.230896,264.173584 
z"/>
<path fill="#343F46" opacity="1.000000" stroke="none" 
	d="
M209.317780,253.032013 
	C209.284790,252.382080 209.537262,251.942596 209.887909,251.269470 
	C211.360184,250.491333 212.736099,249.514526 214.107880,249.520294 
	C215.564545,249.526413 217.199982,250.222534 218.382370,251.114410 
	C218.859787,251.474533 218.749680,253.713211 218.194717,254.116241 
	C216.991821,254.989838 215.261627,255.764389 213.874039,255.586868 
	C212.374985,255.395081 211.020676,254.072021 209.317780,253.032013 
z"/>
<path fill="#2E3940" opacity="1.000000" stroke="none" 
	d="
M216.052551,241.632416 
	C215.494614,242.015335 215.067047,242.008896 214.318771,242.001526 
	C213.287155,239.739502 212.243927,237.509979 212.024933,235.202240 
	C211.934204,234.246277 213.607651,233.122894 214.478790,232.075684 
	C215.362045,233.067902 216.900513,234.005798 216.988205,235.063934 
	C217.155960,237.087479 216.498138,239.179474 216.052551,241.632416 
z"/>
<path fill="#BEBCD3" opacity="1.000000" stroke="none" 
	d="
M195.145767,249.165695 
	C195.577957,248.790894 196.192337,248.627594 196.990326,248.635406 
	C196.558594,248.996765 195.943283,249.186996 195.145767,249.165695 
z"/>
<path fill="#BEBCD3" opacity="1.000000" stroke="none" 
	d="
M201.640594,245.056854 
	C201.973465,245.177780 202.010391,245.370270 201.979401,245.851181 
	C201.389801,246.411362 200.868134,246.683151 200.034668,246.935944 
	C200.263458,246.320740 200.804047,245.724564 201.640594,245.056854 
z"/>
<path fill="#BEBCD3" opacity="1.000000" stroke="none" 
	d="
M204.964905,258.489929 
	C205.152679,258.108643 205.367874,257.698517 205.583069,257.288422 
	C205.471237,257.571106 205.359406,257.853760 205.101715,258.334625 
	C204.955872,258.532806 204.992325,258.461090 204.964905,258.489929 
z"/>
<path fill="#4F4496" opacity="1.000000" stroke="none" 
	d="
M65.551239,113.698944 
	C68.184723,119.431641 67.370872,124.611656 63.842316,129.039963 
	C60.154202,133.668472 55.868202,137.820572 51.539886,142.509949 
	C47.102516,137.862930 42.533401,134.062454 39.299957,129.346252 
	C37.137436,126.192078 35.850288,121.703232 35.974373,117.870003 
	C36.226368,110.085358 43.206833,107.351234 49.426472,112.064980 
	C50.077034,112.558029 50.691036,113.099312 51.298061,113.598534 
	C57.708618,108.347466 60.875324,108.316154 65.551239,113.698944 
z"/>
<path fill="#2C373E" opacity="1.000000" stroke="none" 
	d="
M97.034393,232.818695 
	C93.926117,233.347488 90.817841,233.876282 87.366798,234.239212 
	C86.822212,233.803696 86.620399,233.534042 86.203125,233.129745 
	C86.572060,227.264252 91.225601,229.504349 94.382004,228.822617 
	C95.000664,226.437149 95.328957,223.998535 96.321182,221.869308 
	C96.777046,220.891052 98.535347,220.519730 99.703041,219.873184 
	C100.280006,221.103836 101.638481,222.654419 101.289795,223.506119 
	C100.170609,226.239822 98.420326,228.715134 96.948341,231.865204 
	C96.983154,232.440277 97.034393,232.818695 97.034393,232.818695 
z"/>
<path fill="#364149" opacity="1.000000" stroke="none" 
	d="
M89.213425,220.105637 
	C87.795753,223.959808 84.781036,225.528748 80.979660,225.080688 
	C79.836182,224.945908 78.899361,223.057907 77.867874,221.973068 
	C78.927261,220.971924 79.852089,219.390015 81.077637,219.106079 
	C82.904747,218.682785 84.943954,219.175049 87.480415,219.377060 
	C88.449745,219.686111 88.831581,219.895874 89.213425,220.105637 
z"/>
<path fill="#39434C" opacity="1.000000" stroke="none" 
	d="
M82.185219,211.093201 
	C79.852097,212.552673 77.649696,214.355301 75.126732,215.316422 
	C73.988045,215.750198 71.945702,214.826706 70.830254,213.898117 
	C70.231361,213.399536 70.249390,210.923569 70.829628,210.504898 
	C72.001373,209.659454 73.744209,209.324875 75.256508,209.310608 
	C76.783089,209.296219 78.315735,209.924805 80.415466,210.350891 
	C81.385208,210.651123 81.785210,210.872162 82.185219,211.093201 
z"/>
<path fill="#353F47" opacity="1.000000" stroke="none" 
	d="
M77.060051,202.028366 
	C74.560982,202.521042 71.962570,203.638641 69.601486,203.263306 
	C68.264183,203.050720 67.316299,200.388336 66.193024,198.829315 
	C67.993454,198.436111 69.832153,197.626862 71.581627,197.787750 
	C72.869400,197.906174 74.040520,199.293106 75.684212,200.338745 
	C76.423225,201.051254 76.741638,201.539810 77.060051,202.028366 
z"/>
<path fill="#313C43" opacity="1.000000" stroke="none" 
	d="
M77.394829,201.957550 
	C76.741638,201.539810 76.423225,201.051254 76.047592,200.269165 
	C76.318398,198.240067 76.235634,196.252487 77.098900,194.845261 
	C77.846764,193.626129 79.667404,193.065079 81.013870,192.213150 
	C81.415512,193.798096 82.573639,195.723785 82.047867,196.890976 
	C81.181465,198.814346 79.226006,200.247147 77.394829,201.957550 
z"/>
<path fill="#353F47" opacity="1.000000" stroke="none" 
	d="
M71.792633,189.032867 
	C72.036263,186.362778 72.389244,184.060562 72.742218,181.758362 
	C73.771698,181.920456 75.669716,181.996521 75.695618,182.258026 
	C75.941048,184.735992 75.962791,187.250626 75.827339,189.742676 
	C75.788345,190.460175 75.032341,191.138702 74.160095,192.560333 
	C73.224846,191.251724 72.563416,190.326233 71.792633,189.032867 
z"/>
<path fill="#2B373E" opacity="1.000000" stroke="none" 
	d="
M82.512024,210.959518 
	C81.785210,210.872162 81.385208,210.651123 80.778198,210.334778 
	C80.579399,208.478867 80.089012,206.500626 80.735825,205.018768 
	C81.384697,203.532181 83.167603,202.540558 84.453499,201.332016 
	C84.965706,203.063797 86.082573,204.895370 85.817879,206.498917 
	C85.559784,208.062531 83.889252,209.393005 82.512024,210.959518 
z"/>
<path fill="#2B363D" opacity="1.000000" stroke="none" 
	d="
M89.542892,219.977066 
	C88.831581,219.895874 88.449745,219.686111 87.875641,219.373291 
	C87.685501,217.509964 87.191978,215.537720 87.828789,214.048950 
	C88.468849,212.552597 90.234215,211.537598 91.506454,210.311661 
	C92.017906,212.058441 93.133957,213.904648 92.867760,215.523560 
	C92.610664,217.087112 90.928505,218.416336 89.542892,219.977066 
z"/>
<path fill="#343F46" opacity="1.000000" stroke="none" 
	d="
M97.101997,233.105164 
	C97.034393,232.818695 96.983154,232.440277 96.980537,232.249420 
	C97.299896,232.235397 97.621872,232.412231 98.152481,232.783264 
	C97.963936,233.115555 97.566765,233.253601 97.101997,233.105164 
z"/>
<path fill="#000000" opacity="1.000000" stroke="none" 
	d="
M70.095978,238.892136 
	C70.450653,239.077515 70.758148,239.318314 71.065643,239.559128 
	C70.781784,239.509888 70.497925,239.460648 70.084900,239.235474 
	C69.955742,239.059555 70.048805,238.947571 70.095978,238.892136 
z"/>
<path fill="#000000" opacity="1.000000" stroke="none" 
	d="
M51.004341,226.001343 
	C51.165791,226.368530 51.266422,226.786484 51.367050,227.204437 
	C51.205734,226.991684 51.044422,226.778931 50.852894,226.360352 
	C50.822678,226.154541 50.943531,226.052094 51.004341,226.001343 
z"/>
<path fill="#28343A" opacity="1.000000" stroke="none" 
	d="
M148.717255,245.882004 
	C148.940811,245.608505 149.181519,245.287750 149.422211,244.966995 
	C149.362717,245.196579 149.303207,245.426147 148.961151,245.778717 
	C148.678589,245.901718 148.734406,245.834747 148.717255,245.882004 
z"/>
<path fill="#343F45" opacity="1.000000" stroke="none" 
	d="
M202.063538,177.892990 
	C205.870728,180.704422 206.397659,185.795944 203.006775,191.427307 
	C199.981613,187.067139 200.431076,182.945068 202.157806,178.263107 
	C202.095856,177.830124 202.097961,177.907547 202.063538,177.892990 
z"/>
</svg>